<?xml version="1.0" encoding="UTF-8" standalone="no"?>
<!-- Created with Inkscape (http://www.inkscape.org/) -->

<svg
   xmlns:dc="http://purl.org/dc/elements/1.1/"
   xmlns:cc="http://creativecommons.org/ns#"
   xmlns:rdf="http://www.w3.org/1999/02/22-rdf-syntax-ns#"
   xmlns:svg="http://www.w3.org/2000/svg"
   xmlns="http://www.w3.org/2000/svg"
   xmlns:sodipodi="http://sodipodi.sourceforge.net/DTD/sodipodi-0.dtd"
   xmlns:inkscape="http://www.inkscape.org/namespaces/inkscape"
   width="2105.7144"
   height="1831.4286"
   id="svg2"
   version="1.1"
   inkscape:version="0.48.4 r9939"
   sodipodi:docname="tools.png">
  <defs
     id="defs4" />
  <sodipodi:namedview
     id="base"
     pagecolor="#ffffff"
     bordercolor="#666666"
     borderopacity="1.0"
     inkscape:pageopacity="0.0"
     inkscape:pageshadow="2"
     inkscape:zoom="0.35"
     inkscape:cx="323.57143"
     inkscape:cy="991.42859"
     inkscape:document-units="px"
     inkscape:current-layer="layer1"
     showgrid="true"
     fit-margin-top="0"
     fit-margin-left="0"
     fit-margin-right="0"
     fit-margin-bottom="0"
     inkscape:window-width="1920"
     inkscape:window-height="1056"
     inkscape:window-x="0"
     inkscape:window-y="24"
     inkscape:window-maximized="1">
    <inkscape:grid
       type="xygrid"
       id="grid3047"
       empspacing="5"
       visible="true"
       enabled="true"
       snapvisiblegridlinesonly="true"
       originx="-51.428574px"
       originy="471.42859px" />
  </sodipodi:namedview>
  <metadata
     id="metadata7">
    <rdf:RDF>
      <cc:Work
         rdf:about="">
        <dc:format>image/svg+xml</dc:format>
        <dc:type
           rdf:resource="http://purl.org/dc/dcmitype/StillImage" />
        <dc:title></dc:title>
      </cc:Work>
    </rdf:RDF>
  </metadata>
  <g
     inkscape:label="Layer 1"
     inkscape:groupmode="layer"
     id="layer1"
     transform="translate(-51.428574,307.63782)">
    <rect
       style="fill:#ffffff;fill-opacity:1;stroke:none"
       id="rect3092"
       width="2105.7144"
       height="1831.4286"
       x="51.428574"
       y="-307.63782" />
    <path
       style="fill:#000000;fill-opacity:1;stroke:none"
       d="M 2073.6519,58.746051 1879.5342,306.19018 c -41.8728,53.37575 -118.5473,62.65779 -171.923,20.78505 L 1547.3528,201.25394 C 1493.977,159.38115 1484.7388,82.701396 1526.6116,29.325645 l 191.5909,-244.223225 c -113.3681,-4.46408 -225.4743,42.06313 -299.0318,135.827696 -124.1793,158.292995 -91.4651,391.245744 73.0529,520.308564 164.518,129.06285 398.5367,105.35961 522.7161,-52.93336 75.0893,-95.7174 92.8058,-218.72275 58.7122,-329.559269 z"
       id="path2985"
       inkscape:connector-curvature="0" />
    <path
       style="fill:#000000;fill-opacity:1;stroke:none"
       d="M 216.87894,1130.6955 407.2524,880.35927 c 41.06507,-53.99956 117.59128,-64.43396 171.59083,-23.36891 l 162.13153,123.29629 c 53.99957,41.06505 64.39019,117.59715 23.32511,171.59675 l -187.89536,247.0778 c 113.42234,2.7582 224.81598,-45.4502 296.95462,-140.3107 121.78418,-160.1431 85.56936,-392.57732 -80.8715,-519.15073 -166.44081,-126.57333 -400.0765,-99.35254 -521.86061,60.79053 -73.64106,96.83612 -89.50512,220.0941 -53.74808,330.4052 z"
       id="path2985-7"
       inkscape:connector-curvature="0" />
    <g
       id="g3079"
       transform="matrix(0.72458417,0.68918632,-0.68918632,0.72458417,1303.0219,803.36826)">
      <path
         transform="translate(-5.7142857,-5.7142857)"
         d="m -857.14288,18.076468 c 0,151.483812 -122.8019,274.285702 -274.28572,274.285702 -151.4838,0 -274.2857,-122.80189 -274.2857,-274.285702 0,-151.483808 122.8019,-274.285708 274.2857,-274.285708 151.48382,0 274.28572,122.8019 274.28572,274.285708 z"
         sodipodi:ry="274.28571"
         sodipodi:rx="274.28571"
         sodipodi:cy="18.076468"
         sodipodi:cx="-1131.4286"
         id="path3043"
         style="fill:#000000;fill-opacity:1;stroke:none"
         sodipodi:type="arc" />
      <rect
         y="-33.352085"
         x="-522.85712"
         height="85.714287"
         width="945.71429"
         id="rect3045"
         style="fill:#000000;fill-opacity:1;stroke:none" />
      <path
         inkscape:connector-curvature="0"
         id="path3061"
         d="m -1097,13.290431 0,-275.642541 13.6581,3.80482 c 7.5121,2.09263 137.52724,37.70271 288.92279,79.13348 l 275.26451,75.3287 1.13393,118.067446 1.13396,118.067484 -286.9047,78.44284 c -157.7977,43.14356 -288.32319,78.44228 -290.05669,78.44158 -1.7335,-7e-4 -3.1519,-124.04041 -3.1519,-275.643809 z"
         style="fill:#000000;fill-opacity:1;stroke:none" />
      <g
         transform="matrix(0.00132103,-0.99999913,0.99999913,0.00132103,-525.96005,-517.58765)"
         id="g3067">
        <rect
           style="fill:#000000;fill-opacity:1;stroke:none"
           id="rect3063"
           width="240"
           height="200"
           x="-640"
           y="932.36218"
           ry="80" />
        <rect
           style="fill:#000000;fill-opacity:1;stroke:none"
           id="rect3065"
           width="240"
           height="120"
           x="-640"
           y="1035.2194"
           ry="0" />
      </g>
    </g>
    <rect
       style="fill:#000000;fill-opacity:1;stroke:none"
       id="rect3090"
       width="149.77538"
       height="957.05487"
       x="1013.0401"
       y="-997.81793"
       transform="matrix(0.58564225,0.81056965,-0.84457127,0.53544316,0,0)" />
  </g>
</svg>
